<?xml version="1.0" encoding="UTF-8"?>
<svg id="Layer_1" data-name="Layer 1" xmlns="http://www.w3.org/2000/svg" viewBox="0 0 1080 1080">
  <defs>
    <style>
      .cls-1 {
        fill: #47b9e0;
        stroke-width: 0px;
      }
    </style>
  </defs>
  <path class="cls-1" d="m338.66,453.48c-2.24-6.71-6.36-12.69-12.36-17.95-6-5.25-13.96-9.49-23.89-12.7-9.92-3.22-22.1-4.83-36.54-4.83-6.43,0-12.45.08-18.06.24-1.49.04-2.98.08-4.46.13-.48,4.41-3.56,8.2-7.94,9.66l-26.3,8.76c-8.6,2.86-16.19,9.45-20.3,17.62l-12.57,24.96c-2.02,4.02-6.02,6.48-10.28,6.48-.19,0-.37,0-.56-.02l-16.85,118.69c-.94,6.59-2.31,12.47-4.12,17.65-1.8,5.18-4,9.57-6.59,13.18-2.59,3.61-5.61,6.37-9.06,8.29-3.45,1.93-7.33,2.89-11.65,2.89l-.47,3.41c9.81,0,18.85.08,27.13.24,8.27.15,16.02.37,23.24.64,7.21.28,14,.55,20.35.83,6.36.27,12.5.55,18.42.82,5.92.28,11.77.49,17.53.65,5.77.16,11.63.23,17.6.23,14.67,0,27.42-1.66,38.24-5,10.83-3.33,19.91-7.73,27.24-13.18,7.34-5.45,13.01-11.71,17.01-18.77s6.51-14.31,7.53-21.77c1.1-7.92.59-15.77-1.53-23.53-2.12-7.77-5.87-14.75-11.24-20.95-5.37-6.2-12.32-11.3-20.83-15.3-8.51-4-18.61-6.15-30.3-6.47v-.35c10.83-.31,20.57-2.06,29.24-5.24,8.67-3.18,16.13-7.27,22.36-12.3,6.24-5.02,11.2-10.7,14.89-17.06,3.69-6.35,6-12.83,6.94-19.42,1.02-6.98.41-13.82-1.82-20.53Zm-76.14,125.44c-.35,4.44-.84,8.69-1.47,12.77-1.02,7.22-2.55,13.28-4.59,18.18-2.04,4.9-4.34,8.85-6.88,11.83-2.55,2.98-5.26,5.12-8.12,6.41-2.87,1.3-5.63,1.94-8.3,1.94-2.2,0-4.29-.39-6.29-1.17-2.01-.79-3.71-1.85-5.12-3.18-1.42-1.33-2.52-2.88-3.3-4.65-.78-1.76-1.06-3.63-.82-5.59l11.53-81.78c6.12,0,11.24.86,15.36,2.59,4.12,1.72,7.47,4.08,10.06,7.06,2.59,2.98,4.49,6.41,5.71,10.29,1.21,3.89,1.98,7.97,2.29,12.24.31,4.28.29,8.63-.06,13.06Zm9.06-115.56c-.27,3.5-.65,6.81-1.12,9.95-1.25,9.1-3.04,16.65-5.35,22.65-2.32,6-5.14,10.79-8.47,14.36-3.34,3.57-7.14,6.08-11.42,7.53-4.27,1.45-9,2.18-14.18,2.18l13.06-91.67c1.57-.4,3.02-.65,4.36-.77,1.33-.12,2.63-.17,3.88-.17,3.61,0,6.63.7,9.06,2.11,2.43,1.42,4.4,3.3,5.89,5.65,1.49,2.36,2.57,5.06,3.23,8.12.67,3.06,1.08,6.3,1.24,9.71.15,3.41.1,6.87-.18,10.35Z"/>
  <path class="cls-1" d="m487.22,418c18.75,0,35.05,2.69,48.89,8.06,13.85,5.37,25.12,12.98,33.83,22.83,8.71,9.85,14.75,21.65,18.12,35.42,3.37,13.77,3.92,29.09,1.65,45.95-1.57,11.38-4.3,22.32-8.18,32.83-3.88,10.51-8.85,20.34-14.89,29.48-6.04,9.14-13.04,17.46-21,24.95-7.96,7.49-16.77,13.91-26.42,19.24-9.65,5.34-20.1,9.45-31.36,12.36-11.26,2.9-23.16,4.35-35.71,4.35s-23.83-1.49-34.07-4.47c-10.24-2.98-19.34-7.16-27.3-12.53-7.96-5.37-14.75-11.83-20.36-19.36-5.61-7.53-10.04-15.87-13.3-25.01-3.26-9.14-5.34-18.93-6.24-29.36-.9-10.43-.61-21.26.88-32.48,2.35-17.1,7.22-32.56,14.59-46.36,7.37-13.81,16.89-25.59,28.54-35.36s25.26-17.3,40.83-22.59c15.57-5.3,32.73-7.94,51.48-7.94Zm-30.71,212.76c4.55,0,9.02-1.98,13.42-5.94,4.39-3.96,8.61-10.16,12.65-18.59,4.04-8.43,7.92-19.24,11.65-32.42,3.73-13.18,7.16-28.99,10.3-47.42,2.75-15.69,4.12-29.69,4.12-42.01s-.96-22.71-2.88-31.18c-1.92-8.47-4.67-14.96-8.24-19.48-3.57-4.51-7.55-6.77-11.94-6.77-4,0-8.22,1.9-12.65,5.71-4.43,3.81-8.81,9.75-13.12,17.83-4.32,8.08-8.45,18.4-12.41,30.95-3.96,12.55-7.43,27.54-10.41,44.95-2.82,16.16-4.35,30.69-4.59,43.6-.24,12.91.59,23.85,2.47,32.83,1.88,8.98,4.69,15.89,8.41,20.71,3.73,4.82,8.14,7.24,13.24,7.24Z"/>
  <path class="cls-1" d="m573.36,646.53c4.31,0,8.2-.96,11.65-2.88,3.45-1.92,6.47-4.69,9.06-8.3,2.59-3.61,4.78-8,6.59-13.18,1.8-5.18,3.18-11.06,4.12-17.65l21.3-150.04c.86-5.96,1.08-10.89.65-14.77-.43-3.88-1.53-6.94-3.29-9.18s-4.16-3.78-7.18-4.65c-3.02-.86-6.65-1.29-10.89-1.29l.47-3.41h120.85l-.47,3.41c-4.32,0-8.2.96-11.65,2.88-3.45,1.92-6.49,4.69-9.12,8.3-2.63,3.61-4.82,8-6.59,13.18s-3.12,11.06-4.06,17.65l-23.42,164.28h42.48c4.63,0,9.14-.8,13.53-2.41,4.39-1.61,8.57-3.77,12.53-6.47,3.96-2.71,7.65-5.82,11.06-9.35s6.41-7.22,9-11.06c2.59-3.84,4.73-7.69,6.41-11.53,1.69-3.84,2.77-7.45,3.24-10.83l3.29-.12-10.36,70.84h-189.69l.47-3.41Z"/>
  <path class="cls-1" d="m752.46,501.9l11.89-85.08h2.71l2.12,4,88.14.35,100.61-.35,3.18-4h2.71l-12.24,85.08-3.29-.12c.47-2.82.59-6.31.35-10.47-.24-4.16-.84-8.51-1.82-13.06-.98-4.55-2.37-9.1-4.18-13.65-1.81-4.55-4.02-8.63-6.65-12.24-2.63-3.61-5.75-6.53-9.36-8.77-3.61-2.24-7.69-3.35-12.24-3.35h-16.36l-25.89,176.4c-.86,5.96-1.08,10.88-.65,14.77.43,3.88,1.53,6.94,3.29,9.18s4.16,3.79,7.18,4.65c3.02.86,6.69,1.29,11,1.29l-.59,3.41h-120.85l.47-3.41c4.31,0,8.2-.96,11.65-2.88,3.45-1.92,6.47-4.69,9.06-8.3,2.59-3.61,4.78-8,6.59-13.18,1.8-5.18,3.18-11.06,4.12-17.65l23.54-164.28h-19.65c-4.55,0-8.94,1.12-13.18,3.35s-8.22,5.16-11.94,8.77c-3.73,3.61-7.12,7.69-10.18,12.24-3.06,4.55-5.75,9.1-8.06,13.65-2.31,4.55-4.18,8.9-5.59,13.06-1.41,4.16-2.28,7.65-2.59,10.47l-3.29.12Z"/>
  <path class="cls-1" d="m211.16,405.26l23.63,8.09c4.1,1.4,3.24,7.49-1.27,8.99l-26.3,8.76c-10.16,3.38-18.91,10.97-23.76,20.61l-12.57,24.97c-2.16,4.28-8.23,4.21-8.97-.1l-4.29-24.86c-1.77-10.24-8.57-18.26-18.3-21.59l-23.03-7.88c-4.16-1.42-3.2-7.63,1.4-9.03l25.4-7.76c10.85-3.32,20.2-11.43,25.1-21.77l11.46-24.22c2.08-4.39,8.28-4.4,9.03-.02l4.18,24.24c1.77,10.24,8.57,18.26,18.3,21.59Z"/>
</svg>